<svg xmlns="http://www.w3.org/2000/svg" width="780" height="500" viewBox="0 0 780 500" font-family="DejaVu Sans, Helvetica, Arial, sans-serif" font-size="13">
<rect width="780" height="500" fill="white"/>
<text x="80.0" y="24.0" font-size="15" text-anchor="start" fill="#222" font-weight="bold">Frame rate versus ROI height: what limits it</text>
<text x="80.0" y="42.0" font-size="12" text-anchor="start" fill="#555" font-weight="normal">frames per second, log-log</text>
<line x1="107.9" y1="120.0" x2="107.9" y2="430.0" stroke="#e6e6e6" stroke-width="1.2"/>
<text x="107.9" y="448.0" font-size="13" text-anchor="middle" fill="#222" font-weight="normal">8</text>
<line x1="175.1" y1="120.0" x2="175.1" y2="430.0" stroke="#e6e6e6" stroke-width="1.2"/>
<text x="175.1" y="448.0" font-size="13" text-anchor="middle" fill="#222" font-weight="normal">16</text>
<line x1="242.4" y1="120.0" x2="242.4" y2="430.0" stroke="#e6e6e6" stroke-width="1.2"/>
<text x="242.4" y="448.0" font-size="13" text-anchor="middle" fill="#222" font-weight="normal">32</text>
<line x1="309.6" y1="120.0" x2="309.6" y2="430.0" stroke="#e6e6e6" stroke-width="1.2"/>
<text x="309.6" y="448.0" font-size="13" text-anchor="middle" fill="#222" font-weight="normal">64</text>
<line x1="376.8" y1="120.0" x2="376.8" y2="430.0" stroke="#e6e6e6" stroke-width="1.2"/>
<text x="376.8" y="448.0" font-size="13" text-anchor="middle" fill="#222" font-weight="normal">128</text>
<line x1="444.1" y1="120.0" x2="444.1" y2="430.0" stroke="#e6e6e6" stroke-width="1.2"/>
<text x="444.1" y="448.0" font-size="13" text-anchor="middle" fill="#222" font-weight="normal">256</text>
<line x1="511.3" y1="120.0" x2="511.3" y2="430.0" stroke="#e6e6e6" stroke-width="1.2"/>
<text x="511.3" y="448.0" font-size="13" text-anchor="middle" fill="#222" font-weight="normal">512</text>
<line x1="578.5" y1="120.0" x2="578.5" y2="430.0" stroke="#e6e6e6" stroke-width="1.2"/>
<text x="578.5" y="448.0" font-size="13" text-anchor="middle" fill="#222" font-weight="normal">1024</text>
<line x1="645.7" y1="120.0" x2="645.7" y2="430.0" stroke="#e6e6e6" stroke-width="1.2"/>
<text x="645.7" y="448.0" font-size="13" text-anchor="middle" fill="#222" font-weight="normal">2048</text>
<line x1="713.0" y1="120.0" x2="713.0" y2="430.0" stroke="#e6e6e6" stroke-width="1.2"/>
<text x="713.0" y="448.0" font-size="13" text-anchor="middle" fill="#222" font-weight="normal">4096</text>
<line x1="80.0" y1="405.3" x2="750.0" y2="405.3" stroke="#e6e6e6" stroke-width="1.2"/>
<text x="72.0" y="409.3" font-size="13" text-anchor="end" fill="#222" font-weight="normal">10</text>
<line x1="80.0" y1="323.2" x2="750.0" y2="323.2" stroke="#e6e6e6" stroke-width="1.2"/>
<text x="72.0" y="327.2" font-size="13" text-anchor="end" fill="#222" font-weight="normal">100</text>
<line x1="80.0" y1="241.2" x2="750.0" y2="241.2" stroke="#e6e6e6" stroke-width="1.2"/>
<text x="72.0" y="245.2" font-size="13" text-anchor="end" fill="#222" font-weight="normal">1000</text>
<line x1="80.0" y1="159.1" x2="750.0" y2="159.1" stroke="#e6e6e6" stroke-width="1.2"/>
<text x="72.0" y="163.1" font-size="13" text-anchor="end" fill="#222" font-weight="normal">10000</text>
<line x1="80.0" y1="430.0" x2="750.0" y2="430.0" stroke="#222" stroke-width="1.2"/>
<line x1="80.0" y1="120.0" x2="80.0" y2="430.0" stroke="#222" stroke-width="1.2"/>
<text x="415.0" y="472.0" font-size="13" text-anchor="middle" fill="#222" font-weight="normal">ROI height (rows, full 4096 width)</text>
<path d="M107.9,152.3 L121.5,157.3 L135.0,162.3 L148.6,167.3 L162.1,172.2 L175.7,177.2 L189.2,182.2 L202.8,187.2 L216.3,192.2 L229.9,197.1 L243.5,202.1 L257.0,207.1 L270.6,212.1 L284.1,217.1 L297.7,222.0 L311.2,227.0 L324.8,232.0 L338.4,237.0 L351.9,242.0 L365.5,246.9 L379.0,251.9 L392.6,256.9 L406.1,261.9 L419.7,266.9 L433.2,271.8 L446.8,276.8 L460.4,281.8 L473.9,286.8 L487.5,291.8 L501.0,296.7 L514.6,301.7 L528.1,306.7 L541.7,311.7 L555.2,316.7 L568.8,321.6 L582.4,326.6 L595.9,331.6 L609.5,336.6 L623.0,341.6 L636.6,346.6 L650.1,351.5 L663.7,356.5 L677.2,361.5 L690.8,366.5 L704.4,371.5 L713.0,374.6" fill="none" stroke="#c0392b" stroke-width="2" stroke-dasharray="7,4"/>
<path d="M107.9,188.3 L121.5,193.2 L135.0,198.2 L148.6,203.2 L162.1,208.2 L175.7,213.2 L189.2,218.1 L202.8,223.1 L216.3,228.1 L229.9,233.1 L243.5,238.1 L257.0,243.0 L270.6,248.0 L284.1,253.0 L297.7,258.0 L311.2,263.0 L324.8,267.9 L338.4,272.9 L351.9,277.9 L365.5,282.9 L379.0,287.9 L392.6,292.8 L406.1,297.8 L419.7,302.8 L433.2,307.8 L446.8,312.8 L460.4,317.8 L473.9,322.7 L487.5,327.7 L501.0,332.7 L514.6,337.7 L528.1,342.7 L541.7,347.6 L555.2,352.6 L568.8,357.6 L582.4,362.6 L595.9,367.6 L609.5,372.5 L623.0,377.5 L636.6,382.5 L650.1,387.5 L663.7,392.5 L677.2,397.4 L690.8,402.4 L704.4,407.4 L713.0,410.6" fill="none" stroke="#2c6fbb" stroke-width="2" stroke-dasharray="7,4"/>
<path d="M713.0,409.1 L645.7,382.4 L578.5,357.7 L511.3,333.5 L444.1,308.8 L376.8,284.5 L309.6,260.4 L242.4,237.0 L107.9,194.3" fill="none" stroke="#999999" stroke-width="1.2"/>
<circle cx="713.0" cy="409.1" r="3.5" fill="white" stroke="#777777"/>
<circle cx="645.7" cy="382.4" r="3.5" fill="white" stroke="#777777"/>
<circle cx="578.5" cy="357.7" r="3.5" fill="white" stroke="#777777"/>
<circle cx="511.3" cy="333.5" r="3.5" fill="white" stroke="#777777"/>
<circle cx="444.1" cy="308.8" r="3.5" fill="white" stroke="#777777"/>
<circle cx="376.8" cy="284.5" r="3.5" fill="white" stroke="#777777"/>
<circle cx="309.6" cy="260.4" r="3.5" fill="white" stroke="#777777"/>
<circle cx="242.4" cy="237.0" r="3.5" fill="white" stroke="#777777"/>
<circle cx="107.9" cy="194.3" r="3.5" fill="white" stroke="#777777"/>
<circle cx="713.0" cy="411.5" r="4.5" fill="#1a7f37" stroke="#1a7f37"/>
<circle cx="645.7" cy="386.2" r="4.5" fill="#1a7f37" stroke="#1a7f37"/>
<circle cx="578.5" cy="361.3" r="4.5" fill="#1a7f37" stroke="#1a7f37"/>
<circle cx="511.3" cy="336.4" r="4.5" fill="#1a7f37" stroke="#1a7f37"/>
<circle cx="444.1" cy="312.0" r="4.5" fill="#1a7f37" stroke="#1a7f37"/>
<circle cx="376.8" cy="287.6" r="4.5" fill="#1a7f37" stroke="#1a7f37"/>
<circle cx="309.6" cy="263.5" r="4.5" fill="#1a7f37" stroke="#1a7f37"/>
<circle cx="242.4" cy="239.9" r="4.5" fill="#1a7f37" stroke="#1a7f37"/>
<circle cx="107.9" cy="195.9" r="4.5" fill="#1a7f37" stroke="#1a7f37"/>
<line x1="90.0" y1="62.0" x2="120.0" y2="62.0" stroke="#c0392b" stroke-width="2.5" stroke-dasharray="7,4"/>
<text x="128.0" y="66.0" font-size="12" text-anchor="start" fill="#222" font-weight="normal">sensor readout limit = 1 / (rows × 10.32 µs)  → 23.7 fps at full frame (manual §6.3)</text>
<line x1="90.0" y1="80.0" x2="120.0" y2="80.0" stroke="#2c6fbb" stroke-width="2.5" stroke-dasharray="7,4"/>
<text x="128.0" y="84.0" font-size="12" text-anchor="start" fill="#222" font-weight="normal">USB 3 link limit = 289.5 MB/s / (rows × 8192 bytes)  → 8.6 fps at full frame</text>
<circle cx="105.0" cy="98.0" r="3.5" fill="white" stroke="#777777"/>
<text x="128.0" y="102.0" font-size="12" text-anchor="start" fill="#222" font-weight="normal">vendor table (manual §6.3, test report §3.1)</text>
<circle cx="105.0" cy="116.0" r="4.5" fill="#1a7f37" stroke="#1a7f37"/>
<text x="128.0" y="120.0" font-size="12" text-anchor="start" fill="#222" font-weight="normal">measured here, 2026-08-26 (Renesas controller, acquire-only)</text>
<text x="113.8" y="298.5" font-size="11" text-anchor="start" fill="#2c6fbb" font-weight="normal">the camera runs on the blue line: the USB link,</text>
<text x="113.8" y="311.3" font-size="11" text-anchor="start" fill="#2c6fbb" font-weight="normal">not the sensor, sets the frame rate at every height</text>
<text x="113.8" y="341.5" font-size="11" text-anchor="start" fill="#555" font-weight="normal">below ~32 rows a fixed per-frame cost pulls it under the line</text>
</svg>
